<?xml version="1.0" standalone="no"?>
<!DOCTYPE svg PUBLIC "-//W3C//DTD SVG 20010904//EN"
 "http://www.w3.org/TR/2001/REC-SVG-20010904/DTD/svg10.dtd">
<svg version="1.0" xmlns="http://www.w3.org/2000/svg"
 width="640.000000pt" height="640.000000pt" viewBox="0 0 640.000000 640.000000"
 preserveAspectRatio="xMidYMid meet">
<metadata>
Created by potrace 1.14, written by Peter Selinger 2001-2017
</metadata>
<g transform="translate(0.000000,640.000000) scale(0.100000,-0.100000)"
fill="#000000" stroke="none">
<path d="M1 4888 c1 -874 5 -1473 10 -1418 25 292 103 627 206 890 218 555
587 1040 1067 1399 169 127 296 206 476 297 354 178 717 285 1095 323 61 6
124 13 140 15 17 1 -651 4 -1482 5 l-1513 1 1 -1512z"/>
<path d="M3410 6393 c274 -25 429 -51 628 -104 735 -196 1382 -658 1821 -1303
44 -66 81 -124 81 -130 0 -13 -63 -136 -70 -136 -3 0 -14 15 -25 33 -124 214
-320 463 -506 642 -479 460 -1055 743 -1714 842 -172 26 -680 26 -845 0 -633
-98 -1173 -352 -1638 -771 -521 -470 -883 -1150 -976 -1836 -11 -79 -24 -131
-41 -164 -31 -60 -32 -125 -6 -198 15 -41 20 -91 25 -223 6 -198 33 -391 80
-578 35 -136 120 -384 138 -402 16 -15 0 445 -18 524 -17 75 -51 341 -53 419
l-2 54 30 -18 c22 -13 31 -26 31 -44 0 -18 3 -21 9 -11 16 25 194 8 260 -24
53 -26 140 -47 174 -42 21 4 43 24 35 33 -4 3 -37 14 -75 23 -62 16 -65 18
-38 25 17 3 78 2 136 -3 159 -14 241 -56 295 -153 24 -44 29 -65 29 -123 0
-59 -4 -76 -26 -108 -31 -45 -89 -89 -142 -108 -46 -16 -47 -25 -5 -34 76 -17
143 -68 180 -138 30 -56 32 -193 5 -248 -33 -67 -85 -117 -157 -152 l-69 -34
46 -74 c187 -302 518 -634 813 -816 181 -112 380 -208 555 -267 404 -138 875
-171 1310 -91 684 126 1302 537 1688 1121 54 82 117 188 117 197 0 1 -51 2
-112 2 l-113 0 -6 255 c-4 140 -8 389 -10 553 -3 256 -2 299 11 307 8 6 129
10 278 10 l262 0 0 138 c0 161 -20 343 -55 508 -14 66 -25 122 -25 125 0 5 23
5 111 -1 8 0 45 -179 64 -310 9 -58 18 -196 22 -308 l6 -203 37 -27 c21 -15
48 -42 61 -61 l24 -34 8 39 c13 60 1 513 -17 634 -9 58 -27 160 -42 228 -25
118 -25 124 -8 143 9 10 19 18 21 16 15 -15 67 -268 89 -432 21 -163 24 -485
5 -685 -12 -129 -70 -413 -101 -495 -7 -19 0 -45 33 -125 23 -55 45 -100 48
-100 6 0 80 233 103 325 98 397 111 863 37 1271 -20 108 -72 318 -91 368 -8
22 -4 34 30 85 40 60 51 95 27 86 -6 -3 -25 -25 -40 -50 -16 -25 -32 -45 -35
-45 -4 0 -25 46 -46 103 -21 56 -49 125 -62 152 -57 125 -56 116 -17 189 19
37 38 64 42 61 11 -6 93 -176 138 -284 106 -254 192 -600 222 -891 5 -52 9
489 10 1398 l1 1482 -1512 -2 c-832 0 -1497 -3 -1478 -5z m110 -299 c359 -41
653 -126 965 -279 300 -148 547 -325 785 -565 191 -192 361 -416 476 -626 42
-78 44 -84 32 -115 l-14 -32 -61 109 c-135 240 -283 436 -477 630 -458 457
-1017 733 -1661 820 -178 24 -550 24 -725 0 -348 -48 -598 -125 -915 -281
-822 -405 -1413 -1214 -1550 -2122 -8 -54 -15 -104 -15 -110 0 -20 -13 -15
-33 13 -18 24 -18 29 -2 130 31 198 100 448 172 624 98 239 270 532 429 730
100 124 313 340 434 437 412 333 909 552 1415 623 185 26 189 26 415 28 122 1
245 -4 330 -14z m36 -199 c294 -39 600 -132 859 -262 531 -267 946 -682 1218
-1216 47 -92 58 -123 52 -145 -9 -37 -45 -112 -54 -112 -4 0 -29 48 -56 108
-199 448 -537 841 -965 1121 -134 88 -412 222 -570 275 -254 85 -473 124 -751
133 -635 20 -1220 -177 -1719 -579 -241 -193 -515 -523 -645 -775 -20 -40 -40
-73 -45 -73 -15 0 -149 -131 -171 -167 -38 -62 -33 -19 11 84 193 455 555 887
979 1172 385 258 856 419 1331 455 102 7 407 -4 526 -19z m2341 -1582 c17 -38
46 -112 64 -165 27 -77 32 -101 23 -115 -6 -10 -17 -18 -24 -18 -7 0 -33 59
-59 135 -26 74 -53 145 -59 157 -9 17 -9 28 0 47 6 14 14 26 18 26 4 0 21 -30
37 -67z m-5123 -192 c-9 -23 -18 -40 -21 -38 -2 3 4 23 13 46 9 23 18 40 21
38 2 -3 -4 -23 -13 -46z m4986 -4 c0 -1 14 -42 30 -90 17 -49 30 -93 30 -98 0
-17 -57 -9 -75 11 -26 29 -22 180 5 180 6 0 10 -1 10 -3z m-5121 -143 c1 -12
14 -40 30 -64 24 -36 27 -48 20 -74 -44 -150 -85 -515 -77 -697 2 -64 0 -99
-7 -100 -25 -3 -42 5 -73 34 l-32 31 0 152 c0 222 33 451 97 683 20 69 29 89
34 75 4 -10 8 -28 8 -40z m-299 -791 l0 -73 -25 16 c-24 16 -25 20 -24 128 l0
111 25 -54 c18 -41 24 -70 24 -128z m4690 -207 l0 -113 -61 -7 c-34 -3 -119
-6 -190 -6 -70 0 -134 -3 -143 -6 -13 -5 -16 -24 -16 -102 l0 -95 194 7 193 7
5 -113 c3 -62 4 -115 2 -116 -1 -2 -87 -7 -191 -10 l-188 -7 -3 -109 -3 -108
213 3 213 4 3 -116 3 -116 -133 -6 c-73 -4 -236 -8 -363 -9 l-230 -2 -6 174
c-3 96 -8 348 -10 560 l-4 385 245 5 c135 3 296 7 358 8 l112 2 0 -114z
m-1127 55 c74 -29 147 -87 181 -145 27 -46 64 -172 53 -182 -3 -3 -72 -8 -154
-11 l-150 -6 -11 46 c-31 121 -177 116 -227 -8 -30 -75 -29 -311 3 -412 35
-113 101 -151 179 -103 36 21 63 92 63 163 l0 39 -64 -4 -64 -4 -6 68 c-4 37
-4 83 0 102 l6 36 78 0 c42 0 139 3 214 7 l138 6 -4 -179 c-3 -140 -8 -190
-22 -228 -48 -130 -130 -207 -270 -252 -70 -22 -92 -25 -159 -20 -224 18 -370
182 -412 465 -19 122 -19 190 0 285 18 97 63 191 118 248 48 50 85 72 167 100
80 26 262 20 343 -11z m-996 -9 c117 -37 194 -112 227 -222 36 -121 8 -229
-81 -319 l-55 -54 28 -71 c15 -39 60 -147 100 -241 l72 -170 -51 -7 c-29 -3
-102 -6 -164 -7 l-111 -1 -26 68 c-14 37 -50 132 -80 212 l-55 145 -43 0 -43
0 2 -211 2 -211 -67 -7 c-37 -3 -106 -6 -154 -6 l-88 0 0 88 c0 48 -5 287 -10
532 -6 244 -8 457 -5 472 l6 28 182 3 c253 5 344 0 414 -21z m-763 -89 c3 -54
7 -246 8 -428 3 -385 1 -397 -84 -491 -90 -97 -205 -140 -358 -131 -163 9
-277 71 -337 184 -17 32 -36 85 -41 118 -6 33 -13 234 -17 448 l-6 387 154 0
154 0 6 -197 c4 -108 7 -280 7 -382 0 -201 8 -250 47 -288 21 -22 31 -25 71
-20 50 5 86 37 95 85 3 14 1 193 -4 396 -4 204 -6 381 -2 394 5 22 8 22 153
22 l148 0 6 -97z"/>
<path d="M2616 2808 c-8 -30 -7 -139 0 -205 l7 -53 38 0 c52 0 122 32 148 68
43 60 17 166 -49 199 -14 7 -50 13 -81 13 -50 0 -57 -3 -63 -22z"/>
<path d="M2 1513 l-2 -1513 1483 1 c908 1 1449 5 1397 10 -723 74 -1385 383
-1903 888 -480 467 -782 1017 -911 1658 -24 118 -53 325 -59 418 -2 28 -4
-631 -5 -1462z"/>
<path d="M6390 2908 c-1 -111 -58 -416 -116 -619 -108 -376 -317 -774 -580
-1104 -112 -140 -337 -364 -479 -478 -246 -197 -572 -388 -849 -495 -227 -89
-547 -167 -801 -196 -106 -12 55 -14 1358 -15 l1477 -1 0 1475 c0 811 -2 1475
-5 1475 -3 0 -5 -19 -5 -42z"/>
<path d="M5555 2859 c-4 -17 -4 -80 0 -140 l7 -109 47 0 c25 0 64 9 87 19 40
18 41 20 56 95 15 75 15 78 -6 109 -29 43 -60 57 -128 57 -55 0 -57 -1 -63
-31z"/>
<path d="M664 2753 c-7 -36 7 -128 27 -180 9 -23 13 -25 51 -19 115 19 161
140 81 214 -20 18 -36 22 -88 22 l-64 0 -7 -37z"/>
<path d="M5952 2501 c-9 -5 -11 -17 -6 -35 7 -31 18 -24 28 17 7 28 1 33 -22
18z"/>
<path d="M5566 2389 c-8 -41 -7 -163 2 -214 l7 -40 46 121 c53 141 51 164 -11
164 -34 0 -38 -3 -44 -31z"/>
<path d="M760 2363 c1 -35 77 -223 91 -223 12 0 27 25 37 62 16 57 -3 114 -47
144 -34 23 -81 33 -81 17z"/>
<path d="M670 2160 l0 -60 30 0 30 0 -16 38 c-9 20 -20 47 -25 60 -14 36 -19
26 -19 -38z"/>
<path d="M5661 2049 c-126 -248 -222 -397 -377 -583 -331 -396 -780 -697
-1262 -845 -164 -50 -326 -86 -480 -105 -163 -21 -497 -21 -662 -1 -609 76
-1159 344 -1589 776 -151 150 -301 340 -396 499 -61 102 -60 101 -129 99 -98
-3 -100 -5 -72 -66 34 -72 163 -268 260 -393 149 -194 398 -429 616 -581 324
-228 748 -403 1126 -468 201 -34 359 -44 587 -38 221 5 350 20 540 62 709 155
1360 602 1761 1210 90 136 170 278 196 349 l20 53 -33 88 -34 88 -72 -144z"/>
<path d="M5878 1980 c-16 -4 -33 -26 -57 -70 -229 -442 -517 -784 -895 -1065
-272 -202 -632 -375 -966 -464 -595 -159 -1272 -120 -1829 104 -627 252 -1139
700 -1476 1293 l-59 102 -78 0 -78 0 15 -37 c56 -134 222 -397 355 -562 393
-488 931 -850 1525 -1025 837 -246 1742 -125 2475 333 431 268 759 600 1020
1032 78 129 164 295 175 339 6 24 5 25 -49 25 -30 0 -65 -2 -78 -5z"/>
</g>
</svg>
